<svg width="18" height="17" viewBox="0 0 18 17" fill="none" xmlns="http://www.w3.org/2000/svg">
<path d="M15.6998 4.18471L10.8998 0.826372C9.59151 -0.0902944 7.58318 -0.0402944 6.32487 0.934706L2.14987 4.19304C1.31654 4.84304 0.658203 6.17637 0.658203 7.22633V12.9763C0.658203 15.1013 2.3832 16.8347 4.5082 16.8347H13.4915C15.6165 16.8347 17.3415 15.1097 17.3415 12.9847V7.33466C17.3415 6.20971 16.6165 4.82637 15.6998 4.18471ZM9.62485 13.5013C9.62485 13.843 9.34151 14.1263 8.99985 14.1263C8.65818 14.1263 8.37485 13.843 8.37485 13.5013V11.0013C8.37485 10.6597 8.65818 10.3763 8.99985 10.3763C9.34151 10.3763 9.62485 10.6597 9.62485 11.0013V13.5013Z" fill="#929EAE"/>
</svg>
