<svg width="18" height="17" viewBox="0 0 18 17" fill="none" xmlns="http://www.w3.org/2000/svg">
<path d="M12.492 0.166748H5.50866C2.47533 0.166748 0.666992 1.97508 0.666992 5.00841V11.9834C0.666992 15.0251 2.47533 16.8334 5.50866 16.8334H12.4837C15.517 16.8334 17.3253 15.0251 17.3253 11.9917V5.00841C17.3337 1.97508 15.5253 0.166748 12.492 0.166748ZM13.3837 6.80008L11.4587 9.28341C11.217 9.59175 10.8753 9.79175 10.4837 9.83342C10.092 9.88342 9.70866 9.77508 9.40032 9.53341L7.87533 8.33342C7.81699 8.28341 7.75033 8.28341 7.71699 8.29175C7.68366 8.29175 7.62533 8.30842 7.57533 8.37508L5.59199 10.9501C5.46699 11.1084 5.28366 11.1917 5.10033 11.1917C4.96699 11.1917 4.83366 11.1501 4.71699 11.0584C4.44199 10.8501 4.39199 10.4584 4.60033 10.1834L6.58366 7.60842C6.82533 7.30008 7.16699 7.10008 7.55866 7.05008C7.94199 7.00008 8.33366 7.10842 8.64199 7.35008L10.167 8.55008C10.2253 8.60008 10.2837 8.60008 10.3253 8.59175C10.3587 8.59175 10.417 8.57508 10.467 8.50842L12.392 6.02508C12.6003 5.75008 13.0003 5.70008 13.267 5.91675C13.542 6.14175 13.592 6.53341 13.3837 6.80008Z" fill="#929EAE"/>
</svg>
