<svg width="20" height="21" viewBox="0 0 20 21" fill="none" xmlns="http://www.w3.org/2000/svg">
<path d="M6.56491 10.5584C6.56491 10.2167 6.84824 9.93341 7.18991 9.93341H11.7566V2.88341C11.7483 2.48341 11.4316 2.16675 11.0316 2.16675C6.12324 2.16675 2.69824 5.59175 2.69824 10.5001C2.69824 15.4084 6.12324 18.8334 11.0316 18.8334C11.4233 18.8334 11.7483 18.5167 11.7483 18.1167V11.1751H7.18991C6.83991 11.1834 6.56491 10.9001 6.56491 10.5584Z" fill="#929EAE"/>
<path d="M17.1176 10.1168L14.751 7.7418C14.5093 7.50013 14.1093 7.50013 13.8676 7.7418C13.626 7.98346 13.626 8.38346 13.8676 8.62513L15.1676 9.92516H11.751V11.1752H15.1593L13.8593 12.4752C13.6176 12.7168 13.6176 13.1168 13.8593 13.3585C13.9843 13.4835 14.1426 13.5418 14.301 13.5418C14.4593 13.5418 14.6176 13.4835 14.7426 13.3585L17.1093 10.9835C17.3593 10.7502 17.3593 10.3585 17.1176 10.1168Z" fill="#929EAE"/>
</svg>
