<svg width="30" height="31" viewBox="0 0 30 31" fill="none" xmlns="http://www.w3.org/2000/svg">
<path fill-rule="evenodd" clip-rule="evenodd" d="M8 0.5C3.58172 0.5 0 4.08172 0 8.5V22.5C0 22.6899 0.00661649 22.8783 0.0196315 23.0648C0.0129944 23.0744 0.00645061 23.0836 0 23.0927C0 23.4378 0.0426053 23.7176 0.127821 23.9321C0.80282 27.667 4.07057 30.5 8 30.5H22C26.4183 30.5 30 26.9183 30 22.5L30 20.4851L30 8.5C30 4.08172 26.4183 0.5 22 0.5H8ZM30 20.4851C30 20.7986 29.9163 21.0978 29.749 21.3828C29.6095 21.6393 29.3863 21.8388 29.0795 21.9813C28.8563 22.1238 28.4519 22.3517 27.8661 22.6652L26.0251 23.6057C25.3556 23.9192 24.7141 24.2326 24.1004 24.5461C23.5146 24.8596 23.0962 25.0733 22.8452 25.1873C22.2873 25.4438 21.855 25.6148 21.5481 25.7003C21.2692 25.7573 20.8787 25.7858 20.3766 25.7858C19.8466 25.7858 19.3584 25.6861 18.9121 25.4866C18.4937 25.2871 18.145 25.0021 17.8661 24.6316C17.5872 24.2611 17.3919 23.8479 17.2803 23.3919C17.1688 22.9075 17.1827 22.3945 17.3222 21.853C17.3222 20.9411 17.4756 20.1004 17.7824 19.3309C18.1172 18.533 18.4798 17.7778 18.8703 17.0653C19.2887 16.3243 19.6513 15.5976 19.9582 14.8852C20.2929 14.1442 20.4603 13.3605 20.4603 12.5341C19.8466 12.5341 19.1911 12.7336 18.4937 13.1325C17.7964 13.5315 17.0851 14.0587 16.3598 14.7142C15.6625 15.3696 14.9651 16.1106 14.2678 16.9371C13.5983 17.735 12.9568 18.5472 12.3431 19.3737C11.7573 20.1716 11.2413 20.9411 10.795 21.682C10.3766 22.423 10.0558 23.0357 9.83264 23.5202C9.77685 23.5487 9.63738 23.5772 9.41423 23.6057H8.99582C8.54951 23.8337 8.27057 23.8337 8.159 23.6057C8.07531 23.3492 8.07531 22.9645 8.159 22.4515C8.27057 21.9385 8.43794 21.3686 8.66109 20.7416C8.88424 20.0861 9.09344 19.4734 9.2887 18.9034C9.51186 18.305 9.67922 17.8205 9.79079 17.45C9.90237 17.0511 9.91632 16.8516 9.83264 16.8516C9.91632 16.7376 10.0139 16.5523 10.1255 16.2958C10.2371 16.0394 10.3487 15.7686 10.4603 15.4836C10.5718 15.1987 10.6695 14.9422 10.7531 14.7142C10.8368 14.4577 10.8787 14.2582 10.8787 14.1157C10.8787 13.8592 10.781 13.7025 10.5858 13.6455C10.4184 13.56 10.251 13.5173 10.0837 13.5173C9.58159 13.2323 9.03766 13.4033 8.45188 14.0302C7.894 14.6287 7.28033 15.4979 6.61088 16.6378C5.96932 17.7493 5.25802 19.0317 4.47699 20.4851C3.72385 21.91 2.88703 23.2922 1.96653 24.6316C1.32497 24.6316 0.83682 24.5461 0.502092 24.3751C0.336255 24.2904 0.211496 24.1427 0.127821 23.9321C0.0764672 23.648 0.0401206 23.3586 0.0196315 23.0648C0.242597 22.7452 0.570781 22.1703 1.00418 21.3401C1.45049 20.4566 1.95258 19.4877 2.51046 18.4332C3.06834 17.3788 3.65411 16.3101 4.26778 15.2272C4.90934 14.1442 5.50907 13.2323 6.06695 12.4913C6.65272 11.7219 7.16876 11.2089 7.61506 10.9524C8.08926 10.6674 8.46583 10.7957 8.74477 11.3371C9.21897 11.0237 9.73501 10.7529 10.2929 10.5249C10.8787 10.2969 11.4644 10.1829 12.0502 10.1829C12.4407 10.1829 12.7615 10.3112 13.0126 10.5677C13.2915 10.7957 13.5007 11.0949 13.6402 11.4654C13.8075 11.8074 13.9331 12.1778 14.0167 12.5768C14.1004 12.9473 14.1423 13.275 14.1423 13.56C14.4491 13.3605 14.9512 13.0185 15.6485 12.5341C16.3738 12.0211 17.1409 11.5081 17.9498 10.9952C18.7866 10.4822 19.5955 10.0405 20.3766 9.66998C21.1855 9.271 21.841 9.07151 22.3431 9.07151C22.7894 9.07151 23.166 9.2425 23.4728 9.58448C23.8075 9.89797 23.9749 10.2969 23.9749 10.7814C22.9707 13.2893 22.1757 15.2984 21.59 16.8088C21.0321 18.3192 20.6555 19.5019 20.4603 20.3569C20.2929 21.1833 20.2929 21.7818 20.4603 22.1523C20.6555 22.4942 20.9902 22.765 21.4644 22.9645C22.2176 22.9645 22.9428 22.8362 23.6402 22.5797C24.3375 22.3232 25.0209 22.0383 25.6904 21.7248C26.3877 21.4113 27.0851 21.1263 27.7824 20.8698C28.4798 20.6133 29.219 20.4851 30 20.4851Z" fill="#1B212D"/>
</svg>
