<svg width="18" height="17" viewBox="0 0 18 17" fill="none" xmlns="http://www.w3.org/2000/svg">
<path d="M15.7503 6.18458C14.242 6.18458 13.6253 5.11792 14.3753 3.80958C14.8087 3.05125 14.5503 2.08458 13.792 1.65125L12.3503 0.826249C11.692 0.434582 10.842 0.667916 10.4503 1.32625L10.3587 1.48458C9.60866 2.79292 8.37533 2.79292 7.61699 1.48458L7.52533 1.32625C7.15033 0.667916 6.30033 0.434582 5.64199 0.826249L4.20033 1.65125C3.44199 2.08458 3.18366 3.05958 3.61699 3.81792C4.37533 5.11792 3.75866 6.18458 2.25033 6.18458C1.38366 6.18458 0.666992 6.89291 0.666992 7.76791V9.23458C0.666992 10.1012 1.37533 10.8179 2.25033 10.8179C3.75866 10.8179 4.37533 11.8846 3.61699 13.1929C3.18366 13.9512 3.44199 14.9179 4.20033 15.3512L5.64199 16.1762C6.30033 16.5679 7.15033 16.3346 7.54199 15.6762L7.63366 15.5179C8.38366 14.2096 9.61699 14.2096 10.3753 15.5179L10.467 15.6762C10.8587 16.3346 11.7087 16.5679 12.367 16.1762L13.8087 15.3512C14.567 14.9179 14.8253 13.9429 14.392 13.1929C13.6337 11.8846 14.2503 10.8179 15.7587 10.8179C16.6253 10.8179 17.342 10.1096 17.342 9.23458V7.76791C17.3337 6.90125 16.6253 6.18458 15.7503 6.18458ZM9.00033 11.2096C7.50866 11.2096 6.29199 9.99291 6.29199 8.50125C6.29199 7.00958 7.50866 5.79292 9.00033 5.79292C10.492 5.79292 11.7087 7.00958 11.7087 8.50125C11.7087 9.99291 10.492 11.2096 9.00033 11.2096Z" fill="#929EAE"/>
</svg>
